<svg width="325.55999755859375px" height="94.54000244140624px" xmlns="http://www.w3.org/2000/svg" viewBox="87.22000122070312 27.729998779296878 325.55999755859375 94.54000244140624" style="background: rgb(255, 255, 255);" preserveAspectRatio="xMidYMid"><defs><filter id="editing-vintage" x="-100%" y="-100%" width="300%" height="300%"><feConvolveMatrix in="SourceGraphic" result="extrude" order="9,9" divisor="1" kernelMatrix="1,0,0,0,0,0,0,0,0,0,1,0,0,0,0,0,0,0,0,0,1,0,0,0,0,0,0,0,0,0,1,0,0,0,0,0,0,0,0,0,1,0,0,0,0,0,0,0,0,0,1,0,0,0,0,0,0,0,0,0,1,0,0,0,0,0,0,0,0,0,1,0,0,0,0,0,0,0,0,0,1"> </feConvolveMatrix><feFlood flood-color="#f4edd8" result="flood-extrude"></feFlood><feComposite operator="in" in="flood-extrude" in2="extrude" result="extrude-color"></feComposite><feOffset dx="5" dy="5" in="extrude-color" result="extrude-offset"></feOffset><feColorMatrix in="SourceGraphic" result="stroke" type="matrix" values="0 0 0 0 0 0 0 0 0 0 0 0 0 0 0 0 1 0 0 0 "></feColorMatrix><feColorMatrix in="SourceGraphic" result="fill" type="matrix" values="0 0 0 0 0 0 0 0 0 0 0 0 0 0 0 1 0 0 1 0 "></feColorMatrix><feConvolveMatrix in="stroke" result="inner-shadow" order="5,5" divisor="1" kernelMatrix="1 0 0 0 0 0 1 0 0 0 0 0 1 0 0 0 0 0 1 0 0 0 0 0 1 "></feConvolveMatrix><feOffset dx="1" dy="1" in="inner-shadow" result="offset"></feOffset><feComposite operator="in" in="offset" in2="SourceAlpha" result="comp"></feComposite><feFlood flood-color="#fae127" result="flood3"></feFlood><feComposite operator="in" in="flood3" in2="comp" result="comp2"></feComposite><feColorMatrix in="comp2" result="comp3" type="matrix" values="1 0 0 0 0 0 1 0 0 0 0 0 1 0 0 0 0 0 0.5 0 "></feColorMatrix><feFlood flood-color="#dfa950" result="flood1"></feFlood><feComposite operator="in" in="flood1" in2="fill" result="fill2"></feComposite><feFlood flood-color="#fff" result="flood2"></feFlood><feComposite operator="in" in="flood2" in2="stroke" result="stroke2"></feComposite><feMerge result="obj"><feMergeNode in="extrude-offset"></feMergeNode><feMergeNode in="fill2"></feMergeNode><feMergeNode in="comp3"></feMergeNode></feMerge><feConvolveMatrix in="SourceAlpha" result="shadow" order="9,9" divisor="1" kernelMatrix="1,0,0,0,0,0,0,0,0,0,1,0,0,0,0,0,0,0,0,0,1,0,0,0,0,0,0,0,0,0,1,0,0,0,0,0,0,0,0,0,1,0,0,0,0,0,0,0,0,0,1,0,0,0,0,0,0,0,0,0,1,0,0,0,0,0,0,0,0,0,1,0,0,0,0,0,0,0,0,0,1"></feConvolveMatrix><feOffset dx="15" dy="15" in="shadow" result="shadow-offset"></feOffset><feFlood flood-color="#189ad2" result="flood-shadow"></feFlood><feComposite operator="in" in="flood-shadow" in2="shadow-offset" result="shadow-color"></feComposite><feMerge><feMergeNode in="shadow-color"></feMergeNode><feMergeNode in="obj"></feMergeNode></feMerge></filter></defs><g transform="translate(-9,-9)"><g filter="url(#editing-vintage)"><g transform="translate(138.95999765396118, 101.04500198364258)"><path d="M5.03-5.61L5.03-33.61L5.03-33.61Q5.03-34.75 5.47-35.78L5.47-35.78L5.47-35.78Q5.91-36.80 6.67-37.56L6.67-37.56L6.67-37.56Q7.44-38.31 8.46-38.76L8.46-38.76L8.46-38.76Q9.49-39.21 10.64-39.21L10.64-39.21L31.91-39.21L31.91-39.21Q33.06-39.21 34.08-38.76L34.08-38.76L34.08-38.76Q35.11-38.31 35.88-37.56L35.88-37.56L35.88-37.56Q36.64-36.80 37.08-35.78L37.08-35.78L37.08-35.78Q37.52-34.75 37.52-33.61L37.52-33.61L37.52-28.55L31.91-28.55L31.91-33.61L10.64-33.61L10.64-5.61L31.91-5.61L31.91-15.12L21.27-15.12L21.27-20.73L37.52-20.73L37.52-5.61L37.52-5.61Q37.52-4.46 37.08-3.43L37.08-3.43L37.08-3.43Q36.64-2.41 35.88-1.64L35.88-1.64L35.88-1.64Q35.11-0.88 34.08-0.44L34.08-0.44L34.08-0.44Q33.06 0 31.91 0L31.91 0L10.64 0L10.64 0Q9.49 0 8.46-0.44L8.46-0.44L8.46-0.44Q7.44-0.88 6.67-1.64L6.67-1.64L6.67-1.64Q5.91-2.41 5.47-3.43L5.47-3.43L5.47-3.43Q5.03-4.46 5.03-5.61L5.03-5.61ZM63.49-23.73L52.39-23.73L52.39 0L47.03 0L47.03-29.12L52.39-29.12L52.39-23.98L52.39-23.98Q52.45-25.05 52.88-25.99L52.88-25.99L52.88-25.99Q53.32-26.93 54.04-27.63L54.04-27.63L54.04-27.63Q54.77-28.33 55.73-28.72L55.73-28.72L55.73-28.72Q56.68-29.12 57.78-29.12L57.78-29.12L63.49-29.12L63.49-29.12Q64.61-29.12 65.58-28.70L65.58-28.70L65.58-28.70Q66.55-28.27 67.29-27.55L67.29-27.55L67.29-27.55Q68.03-26.82 68.46-25.84L68.46-25.84L68.46-25.84Q68.88-24.86 68.88-23.73L68.88-23.73L68.88-18.81L63.49-18.81L63.49-23.73ZM100.21-23.73L100.21-11.81L80.94-11.81L80.94-5.39L100.21-5.39L100.21 0L80.94 0L80.94 0Q79.84 0 78.86-0.42L78.86-0.42L78.86-0.42Q77.88-0.85 77.15-1.57L77.15-1.57L77.15-1.57Q76.43-2.30 76.00-3.28L76.00-3.28L76.00-3.28Q75.58-4.27 75.58-5.39L75.58-5.39L75.58-23.73L75.58-23.73Q75.58-24.86 76.00-25.84L76.00-25.84L76.00-25.84Q76.43-26.82 77.15-27.55L77.15-27.55L77.15-27.55Q77.88-28.27 78.86-28.70L78.86-28.70L78.86-28.70Q79.84-29.12 80.94-29.12L80.94-29.12L94.83-29.12L94.83-29.12Q95.95-29.12 96.93-28.70L96.93-28.70L96.93-28.70Q97.92-28.27 98.64-27.55L98.64-27.55L98.64-27.55Q99.37-26.82 99.79-25.84L99.79-25.84L99.79-25.84Q100.21-24.86 100.21-23.73L100.21-23.73ZM94.83-23.73L80.94-23.73L80.94-17.20L94.83-17.20L94.83-23.73ZM128.43-23.73L114.54-23.73L114.54-5.39L128.43-5.39L128.43-10.31L133.82-10.31L133.82-5.39L133.82-5.39Q133.82-4.27 133.40-3.28L133.40-3.28L133.40-3.28Q132.97-2.30 132.25-1.57L132.25-1.57L132.25-1.57Q131.52-0.85 130.54-0.42L130.54-0.42L130.54-0.42Q129.55 0 128.43 0L128.43 0L114.54 0L114.54 0Q113.45 0 112.46-0.42L112.46-0.42L112.46-0.42Q111.48-0.85 110.76-1.57L110.76-1.57L110.76-1.57Q110.03-2.30 109.61-3.28L109.61-3.28L109.61-3.28Q109.18-4.27 109.18-5.39L109.18-5.39L109.18-23.73L109.18-23.73Q109.18-24.86 109.61-25.84L109.61-25.84L109.61-25.84Q110.03-26.82 110.76-27.55L110.76-27.55L110.76-27.55Q111.48-28.27 112.46-28.70L112.46-28.70L112.46-28.70Q113.45-29.12 114.54-29.12L114.54-29.12L128.43-29.12L128.43-29.12Q129.55-29.12 130.54-28.70L130.54-28.70L130.54-28.70Q131.52-28.27 132.25-27.55L132.25-27.55L132.25-27.55Q132.97-26.82 133.40-25.84L133.40-25.84L133.40-25.84Q133.82-24.86 133.82-23.73L133.82-23.73L133.82-18.81L128.43-18.81L128.43-23.73ZM143.06-29.12L148.45-29.12L148.45 0L143.06 0L143.06-29.12ZM142.79-34.73L142.79-40.33L148.72-40.33L148.72-34.73L142.79-34.73ZM183.45-23.73L183.45-5.39L183.45-5.39Q183.45-4.27 183.03-3.28L183.03-3.28L183.03-3.28Q182.60-2.30 181.88-1.57L181.88-1.57L181.88-1.57Q181.15-0.85 180.17-0.42L180.17-0.42L180.17-0.42Q179.18 0 178.06 0L178.06 0L163.05 0L163.05 11.76L157.69 11.76L157.69-29.12L163.05-29.12L163.05-24.20L163.05-24.20Q163.13-25.24 163.60-26.13L163.60-26.13L163.60-26.13Q164.06-27.02 164.77-27.69L164.77-27.69L164.77-27.69Q165.48-28.36 166.43-28.74L166.43-28.74L166.43-28.74Q167.37-29.12 168.44-29.12L168.44-29.12L178.06-29.12L178.06-29.12Q179.18-29.12 180.17-28.70L180.17-28.70L180.17-28.70Q181.15-28.27 181.88-27.55L181.88-27.55L181.88-27.55Q182.60-26.82 183.03-25.84L183.03-25.84L183.03-25.84Q183.45-24.86 183.45-23.73L183.45-23.73ZM163.05-5.39L178.06-5.39L178.06-23.73L163.05-23.73L163.05-5.39ZM217.05-23.73L217.05-11.81L197.78-11.81L197.78-5.39L217.05-5.39L217.05 0L197.78 0L197.78 0Q196.68 0 195.70-0.42L195.70-0.42L195.70-0.42Q194.71-0.85 193.99-1.57L193.99-1.57L193.99-1.57Q193.27-2.30 192.84-3.28L192.84-3.28L192.84-3.28Q192.42-4.27 192.42-5.39L192.42-5.39L192.42-23.73L192.42-23.73Q192.42-24.86 192.84-25.84L192.84-25.84L192.84-25.84Q193.27-26.82 193.99-27.55L193.99-27.55L193.99-27.55Q194.71-28.27 195.70-28.70L195.70-28.70L195.70-28.70Q196.68-29.12 197.78-29.12L197.78-29.12L211.67-29.12L211.67-29.12Q212.79-29.12 213.77-28.70L213.77-28.70L213.77-28.70Q214.76-28.27 215.48-27.55L215.48-27.55L215.48-27.55Q216.21-26.82 216.63-25.84L216.63-25.84L216.63-25.84Q217.05-24.86 217.05-23.73L217.05-23.73ZM211.67-23.73L197.78-23.73L197.78-17.20L211.67-17.20L211.67-23.73Z" fill="#f00" stroke="#0f0" stroke-width="1.8"></path></g></g><g><g transform="translate(138.95999002456665, 101.04500198364258)"><path d="M5.03-5.61L5.03-33.61L5.03-33.61Q5.03-34.75 5.47-35.78L5.47-35.78L5.47-35.78Q5.91-36.80 6.67-37.56L6.67-37.56L6.67-37.56Q7.44-38.31 8.46-38.76L8.46-38.76L8.46-38.76Q9.49-39.21 10.64-39.21L10.64-39.21L31.91-39.21L31.91-39.21Q33.06-39.21 34.08-38.76L34.08-38.76L34.08-38.76Q35.11-38.31 35.88-37.56L35.88-37.56L35.88-37.56Q36.64-36.80 37.08-35.78L37.08-35.78L37.08-35.78Q37.52-34.75 37.52-33.61L37.52-33.61L37.52-28.55L31.91-28.55L31.91-33.61L10.64-33.61L10.64-5.61L31.91-5.61L31.91-15.12L21.27-15.12L21.27-20.73L37.52-20.73L37.52-5.61L37.52-5.61Q37.52-4.46 37.08-3.43L37.08-3.43L37.08-3.43Q36.64-2.41 35.88-1.64L35.88-1.64L35.88-1.64Q35.11-0.88 34.08-0.44L34.08-0.44L34.08-0.44Q33.06 0 31.91 0L31.91 0L10.64 0L10.64 0Q9.49 0 8.46-0.44L8.46-0.44L8.46-0.44Q7.44-0.88 6.67-1.64L6.67-1.64L6.67-1.64Q5.91-2.41 5.47-3.43L5.47-3.43L5.47-3.43Q5.03-4.46 5.03-5.61L5.03-5.61ZM63.49-23.73L52.39-23.73L52.39 0L47.03 0L47.03-29.12L52.39-29.12L52.39-23.98L52.39-23.98Q52.45-25.05 52.88-25.99L52.88-25.99L52.88-25.99Q53.32-26.93 54.04-27.63L54.04-27.63L54.04-27.63Q54.77-28.33 55.73-28.72L55.73-28.72L55.73-28.72Q56.68-29.12 57.78-29.12L57.78-29.12L63.49-29.12L63.49-29.12Q64.61-29.12 65.58-28.70L65.58-28.70L65.58-28.70Q66.55-28.27 67.29-27.55L67.29-27.55L67.29-27.55Q68.03-26.82 68.46-25.84L68.46-25.84L68.46-25.84Q68.88-24.86 68.88-23.73L68.88-23.73L68.88-18.81L63.49-18.81L63.49-23.73ZM100.21-23.73L100.21-11.81L80.94-11.81L80.94-5.39L100.21-5.39L100.21 0L80.94 0L80.94 0Q79.84 0 78.86-0.42L78.86-0.42L78.86-0.42Q77.88-0.85 77.15-1.57L77.15-1.57L77.15-1.57Q76.43-2.30 76.00-3.28L76.00-3.28L76.00-3.28Q75.58-4.27 75.58-5.39L75.58-5.39L75.58-23.73L75.58-23.73Q75.58-24.86 76.00-25.84L76.00-25.84L76.00-25.84Q76.43-26.82 77.15-27.55L77.15-27.55L77.15-27.55Q77.88-28.27 78.86-28.70L78.86-28.70L78.86-28.70Q79.84-29.12 80.94-29.12L80.94-29.12L94.83-29.12L94.83-29.12Q95.95-29.12 96.93-28.70L96.93-28.70L96.93-28.70Q97.92-28.27 98.64-27.55L98.64-27.55L98.64-27.55Q99.37-26.82 99.79-25.84L99.79-25.84L99.79-25.84Q100.21-24.86 100.21-23.73L100.21-23.73ZM94.83-23.73L80.94-23.73L80.94-17.20L94.83-17.20L94.83-23.73ZM128.43-23.73L114.54-23.73L114.54-5.39L128.43-5.39L128.43-10.31L133.82-10.31L133.82-5.39L133.82-5.39Q133.82-4.27 133.40-3.28L133.40-3.28L133.40-3.28Q132.97-2.30 132.25-1.57L132.25-1.57L132.25-1.57Q131.52-0.85 130.54-0.42L130.54-0.42L130.54-0.42Q129.55 0 128.43 0L128.43 0L114.54 0L114.54 0Q113.45 0 112.46-0.42L112.46-0.42L112.46-0.42Q111.48-0.85 110.76-1.57L110.76-1.57L110.76-1.57Q110.03-2.30 109.61-3.28L109.61-3.28L109.61-3.28Q109.18-4.27 109.18-5.39L109.18-5.39L109.18-23.73L109.18-23.73Q109.18-24.86 109.61-25.84L109.61-25.84L109.61-25.84Q110.03-26.82 110.76-27.55L110.76-27.55L110.76-27.55Q111.48-28.27 112.46-28.70L112.46-28.70L112.46-28.70Q113.45-29.12 114.54-29.12L114.54-29.12L128.43-29.12L128.43-29.12Q129.55-29.12 130.54-28.70L130.54-28.70L130.54-28.70Q131.52-28.27 132.25-27.55L132.25-27.55L132.25-27.55Q132.97-26.82 133.40-25.84L133.40-25.84L133.40-25.84Q133.82-24.86 133.82-23.73L133.82-23.73L133.82-18.81L128.43-18.81L128.43-23.73ZM143.06-29.12L148.45-29.12L148.45 0L143.06 0L143.06-29.12ZM142.79-34.73L142.79-40.33L148.72-40.33L148.72-34.73L142.79-34.73ZM183.45-23.73L183.45-5.39L183.45-5.39Q183.45-4.27 183.03-3.28L183.03-3.28L183.03-3.28Q182.60-2.30 181.88-1.57L181.88-1.57L181.88-1.57Q181.15-0.85 180.17-0.42L180.17-0.42L180.17-0.42Q179.18 0 178.06 0L178.06 0L163.05 0L163.05 11.76L157.69 11.76L157.69-29.12L163.05-29.12L163.05-24.20L163.05-24.20Q163.13-25.24 163.60-26.13L163.60-26.13L163.60-26.13Q164.06-27.02 164.77-27.69L164.77-27.69L164.77-27.69Q165.48-28.36 166.43-28.74L166.43-28.74L166.43-28.74Q167.37-29.12 168.44-29.12L168.44-29.12L178.06-29.12L178.06-29.12Q179.18-29.12 180.17-28.70L180.17-28.70L180.17-28.70Q181.15-28.27 181.88-27.55L181.88-27.55L181.88-27.55Q182.60-26.82 183.03-25.84L183.03-25.84L183.03-25.84Q183.45-24.86 183.45-23.73L183.45-23.73ZM163.05-5.39L178.06-5.39L178.06-23.73L163.05-23.73L163.05-5.39ZM217.05-23.73L217.05-11.81L197.78-11.81L197.78-5.39L217.05-5.39L217.05 0L197.78 0L197.78 0Q196.68 0 195.70-0.42L195.70-0.42L195.70-0.42Q194.71-0.85 193.99-1.57L193.99-1.57L193.99-1.57Q193.27-2.30 192.84-3.28L192.84-3.28L192.84-3.28Q192.42-4.27 192.42-5.39L192.42-5.39L192.42-23.73L192.42-23.73Q192.42-24.86 192.84-25.84L192.84-25.84L192.84-25.84Q193.27-26.82 193.99-27.55L193.99-27.55L193.99-27.55Q194.71-28.27 195.70-28.70L195.70-28.70L195.70-28.70Q196.68-29.12 197.78-29.12L197.78-29.12L211.67-29.12L211.67-29.12Q212.79-29.12 213.77-28.70L213.77-28.70L213.77-28.70Q214.76-28.27 215.48-27.55L215.48-27.55L215.48-27.55Q216.21-26.82 216.63-25.84L216.63-25.84L216.63-25.84Q217.05-24.86 217.05-23.73L217.05-23.73ZM211.67-23.73L197.78-23.73L197.78-17.20L211.67-17.20L211.67-23.73Z" fill="none" stroke="#94733c" stroke-width="2.1"></path></g></g></g><style>text {
  font-size: 64px;
  font-family: Arial Black;
  dominant-baseline: central;
  text-anchor: middle;
}</style></svg>