<?xml version="1.0" encoding="UTF-8" standalone="no"?>
<!-- Created with Inkscape (http://www.inkscape.org/) -->

<svg
   width="30mm"
   height="15mm"
   viewBox="0 0 192.83539 94.115929"
   version="1.1"
   id="svg1"
   xmlns="http://www.w3.org/2000/svg"
   xmlnsSvg="http://www.w3.org/2000/svg">
  <defs
     id="defs1" />
  <g
     id="layer1"
     transform="translate(-7.8025338,-86.307912)">
    <path
       d="m 63.032805,130.35225 c -1.415977,6.8563 -5.142232,10.65708 -9.688263,13.48904 0.14905,-6.63274 0.372625,-14.8305 0.596201,-20.7925 0.223575,-4.84414 -5.440333,-3.94983 -5.589383,-0.67073 -0.2981,8.27229 -6.036533,19.22748 -15.501221,19.22748 -10.731614,0 -6.632734,-25.26401 -3.502679,-30.10815 28.543113,2.90648 41.808581,-17.215293 20.047252,-17.215293 -11.625916,0 -20.121778,5.962003 -24.965909,13.861673 -15.6502712,-4.54604 -10.880665,-19.972732 -2.161228,-19.972732 1.192402,0 1.565027,-1.863127 -0.2981,-1.863127 -15.3521712,0 -22.50658083,20.345349 0.968826,24.444229 -5.887483,8.19776 -8.346811,34.35608 8.644912,34.35608 7.377985,0 13.041892,-5.14224 16.246472,-11.62592 -0.223576,3.72625 -0.372626,7.45251 -0.521676,11.32781 v 2.08671 c -6.409159,2.90648 -13.190943,5.29128 -17.140773,11.17876 -4.993182,7.37799 -3.35363,19.45105 7.30346,19.45105 13.638093,0 15.35217,-16.02289 15.799321,-31.52411 5.365807,-2.98101 9.911838,-7.22894 11.625916,-15.50122 0.2981,-1.49051 -1.565028,-1.86313 -1.863128,-0.14905 z M 37.09807,174.62016 c -8.570387,0.0745 -9.464688,-9.53922 -5.440332,-15.50123 3.577205,-5.29128 9.539213,-7.52703 15.575746,-10.13541 -0.298101,6.48368 0,25.56211 -10.135414,25.63664 z M 49.394712,96.145224 c 14.085244,0 3.502679,15.352166 -19.003901,13.116416 3.726255,-7.15441 10.209939,-12.818315 19.003901,-13.116416 z m 37.411585,34.207026 c -0.819777,3.8753 -2.384804,11.17876 -6.781785,11.25329 -4.620556,0 -1.714077,-15.1286 -1.565027,-18.55675 0.07452,-1.56503 -1.863127,-2.75743 -3.80078,-2.75743 -2.757429,-0.0745 -5.365807,-0.14905 -8.272286,-0.0745 1.415977,-13.04189 -11.625916,-2.0867 -2.012178,1.34145 -0.372625,3.50268 -0.894301,6.70726 -1.565027,10.13542 -0.2981,1.4905 1.490502,1.86312 1.863128,0.14905 0.670726,-3.27911 1.117876,-6.33464 1.490502,-9.76279 1.117876,-0.0745 5.291282,0 5.216757,0.37262 -0.670726,7.00536 -3.35363,22.65564 7.89966,22.65564 6.85631,0 8.272287,-9.09207 9.390163,-14.60692 0.298101,-1.49051 -1.490502,-1.86313 -1.863127,-0.14905 z m 22.431933,0.0745 c -1.26693,6.11106 -4.62056,11.62592 -11.476867,11.62592 -4.546031,0 -5.067706,-5.06771 -4.322455,-9.98637 13.116422,-0.22357 13.190942,-10.95519 5.663907,-10.95519 -14.681445,0 -19.525576,24.14614 -1.863127,24.07161 8.570382,-0.0745 12.594742,-6.93083 13.861672,-14.60692 0.2981,-1.4905 -1.56503,-1.86313 -1.86313,-0.14905 z m -9.762789,-7.37798 c 4.546029,0.0745 3.875309,6.78178 -5.663908,7.15441 0.819776,-2.98101 2.012178,-7.22894 5.663908,-7.15441 z m 32.194749,7.30346 c -1.26693,5.962 -4.62056,11.25329 -11.25329,11.25329 -9.24111,0 -4.62056,-18.63128 1.63955,-18.63128 2.38481,0 2.75743,2.45933 2.01218,4.32246 -0.67073,1.56502 1.04335,2.16122 1.56503,1.04335 1.56502,-3.20458 0.37262,-7.22894 -3.72626,-7.22894 -15.12859,0 -19.97273,24.07161 -2.23575,23.99709 8.57039,0 12.59474,-6.93084 13.86167,-14.60692 0.2981,-1.49051 -1.4905,-1.86313 -1.86313,-0.14905 z m 4.24782,-13.78715 c 1.86313,0 3.42816,-1.56503 3.42816,-3.42815 0,-1.86313 -1.56503,-3.42816 -3.42816,-3.42816 -1.93765,0 -3.42815,1.56503 -3.42815,3.42816 0,1.86312 1.4905,3.42815 3.42815,3.42815 z m 11.40234,13.48904 c -0.81977,3.80079 -2.3848,11.17877 -6.78178,11.2533 -4.62056,0 -1.71408,-15.20313 -1.56503,-18.55675 0.14905,-4.09889 -6.40916,-3.87531 -6.70726,-0.67073 -0.67072,6.93083 -3.20458,22.87921 7.52704,22.73015 6.85631,-0.14905 8.27228,-9.09206 9.39016,-14.60691 0.2981,-1.49051 -1.4905,-1.86313 -1.86313,-0.14906 z m 28.9902,0.29811 c -0.8943,4.39698 -2.16123,6.93083 -7.15441,7.37798 2.38481,-6.26011 2.90648,-16.84267 -6.33463,-16.6191 -4.39698,0.0745 -6.85631,4.09888 -8.64491,8.19776 0.0745,-2.0867 0.14905,-4.1734 0.2981,-6.2601 0.14905,-4.09889 -6.63274,-3.87531 -6.85631,-0.67073 -1.04335,18.55675 -0.96883,36.66635 -1.41598,55.29762 -0.0745,3.57721 6.55821,3.80078 6.70726,-0.14905 0.67073,-14.01071 0.74525,-28.17048 1.11788,-42.33025 1.04335,-2.98101 3.94983,-10.65709 7.22893,-10.58257 3.27911,0.0745 2.60838,10.95519 2.0867,13.11642 h -2.60837 c -6.26011,0.52168 -7.15441,7.37799 -0.89431,7.37799 3.80078,0 6.70726,-2.23576 8.49587,-5.51486 7.45251,-0.0745 8.71943,-3.65173 9.83731,-9.09206 0.2981,-1.49051 -1.4905,-1.86313 -1.86313,-0.14905 z m -16.9172,12.89284 c -3.20458,0 -2.23575,-3.35363 1.41598,-3.65173 0.67073,0 1.26693,-0.0745 1.93765,-0.0745 -0.52167,1.34145 -1.71407,3.72626 -3.35363,3.72626 z m 39.34926,-12.81832 c -1.26693,6.11106 -4.62056,11.62592 -11.47687,11.62592 -4.54603,0 -5.0677,-5.06771 -4.32245,-9.98637 13.11641,-0.22357 13.19094,-10.95519 5.6639,-10.95519 -14.68144,0 -19.52557,24.14614 -1.86312,24.07161 8.57038,-0.0745 12.59474,-6.93083 13.86167,-14.60692 0.2981,-1.4905 -1.56503,-1.86313 -1.86313,-0.14905 z m -9.76279,-7.37798 c 4.54603,0.0745 3.87531,6.78178 -5.66391,7.15441 0.81978,-2.98101 2.01218,-7.22894 5.66391,-7.15441 z"
       id="text1"
       style="font-size:74.5251px;font-family:'Best Valentina';-inkscape-font-specification:'Best Valentina';fill:#ef851a;fill-opacity:1;stroke-width:0.776302"
       aria-label="Grecipe" />
  </g>
</svg>
